<?xml version="1.0" encoding="UTF-8"?>
<svg xmlns="http://www.w3.org/2000/svg" width="640" height="360" viewBox="0 0 640 360">
  <rect x="0" y="0" width="640" height="360" fill="#fafafa"/>
  <g stroke="#1a1a1a" stroke-width="2.5" fill="none" stroke-linecap="round" stroke-linejoin="round">
    <!-- Frame -->
    <rect x="24" y="24" width="592" height="312" rx="8"/>
    <!-- Rule of Thirds Grid -->
    <line x1="221" y1="24" x2="221" y2="336" stroke="#cfcfcf" stroke-dasharray="6 6"/>
    <line x1="418" y1="24" x2="418" y2="336" stroke="#cfcfcf" stroke-dasharray="6 6"/>
    <line x1="24" y1="128" x2="616" y2="128" stroke="#cfcfcf" stroke-dasharray="6 6"/>
    <line x1="24" y1="232" x2="616" y2="232" stroke="#cfcfcf" stroke-dasharray="6 6"/>
    <!-- Horizon line -->
    <line x1="40" y1="200" x2="600" y2="192" />
    <!-- Subject silhouette (medium shot) -->
    <circle cx="320" cy="180" r="18" />
    <path d="M290 220 C295 200 345 200 350 220 S380 255 380 240" />
    <!-- FOV marks -->
    <path d="M40 70 L80 90 L40 110" />
    <path d="M600 70 L560 90 L600 110" />
    <!-- Camera movement arrow -->
    <path d="M100 130 L160 140" />
    <path d="M160 140 L148 128" />
    <path d="M160 140 L148 152" />
    <!-- Notes / scribbles -->
    <path d="M460 80 l30 0 m-15 -10 l0 20" />
    <path d="M470 280 q20 -10 40 0 q-20 10 -40 0" />
  </g>
  <text x="34" y="46" fill="#1a1a1a" font-size="12" font-family="monospace">MS</text>
  <text x="556" y="46" fill="#1a1a1a" font-size="12" font-family="monospace" text-anchor="end">Grid</text>
</svg>